<svg height="534" viewBox="52 247 1050 534" width="1050" xmlns="http://www.w3.org/2000/svg" xmlns:xlink="http://www.w3.org/1999/xlink"><clipPath id="a"><path d="m0 864h864v-864h-864z"/></clipPath><g transform="matrix(1.3333333 0 0 -1.3333333 0 1152)"><path d="m780.385 293.903h-725.692v73.61h725.692z" fill="#ed1c24"/><path d="m458.247 349.658h7.528v-37.279h-7.528z" fill="#fff"/><g clip-path="url(#a)"><g fill="#fff"><path d="m0 0h-7.145v13.783c0 2.915-.153 4.802-.458 5.658-.305.857-.801 1.522-1.489 1.997-.685.473-1.512.711-2.478.711-1.239 0-2.35-.339-3.332-1.017-.983-.678-1.657-1.577-2.021-2.695-.366-1.12-.547-3.189-.547-6.207v-12.23h-7.147v27.008h6.638v-3.968c2.356 3.052 5.323 4.578 8.902 4.578 1.576 0 3.016-.285 4.323-.852 1.304-.571 2.293-1.294 2.962-2.175s1.135-1.882 1.397-3.001c.263-1.119.395-2.721.395-4.806z" transform="translate(497.4595 312.3789)"/><path d="m0 0v-5.697h-4.883v-10.884c0-2.206.047-3.489.141-3.854.092-.364.305-.666.635-.903.332-.236.732-.356 1.209-.356.661 0 1.617.23 2.872.687l.61-5.544c-1.662-.712-3.544-1.068-5.646-1.068-1.288 0-2.449.216-3.483.649-1.035.432-1.792.991-2.276 1.679-.482.686-.818 1.613-1.005 2.783-.153.832-.228 2.511-.228 5.035v11.776h-3.282v5.697h3.282v5.364l7.171 4.171v-9.535z" transform="translate(517.0923 339.3867)"/><path d="m0 0c-.051 2.067-.586 3.64-1.604 4.716-1.017 1.077-2.253 1.616-3.712 1.616-1.561 0-2.849-.568-3.866-1.703-1.017-1.138-1.517-2.68-1.5-4.629zm-.407-7.222 7.121-1.196c-.916-2.61-2.362-4.599-4.338-5.964s-4.445-2.047-7.411-2.047c-4.698 0-8.173 1.534-10.427 4.603-1.78 2.46-2.672 5.562-2.672 9.307 0 4.477 1.17 7.982 3.51 10.517 2.34 2.533 5.298 3.803 8.876 3.803 4.019 0 7.188-1.329 9.512-3.982 2.321-2.653 3.432-6.718 3.33-12.193h-17.904c.051-2.12.629-3.768 1.73-4.945 1.102-1.181 2.476-1.769 4.12-1.769 1.118 0 2.061.306 2.823.916.764.61 1.339 1.593 1.73 2.95" transform="translate(538.0991 328.1963)"/><path d="m0 0h-7.147v27.008h6.638v-3.842c1.136 1.815 2.157 3.01 3.065 3.587.907.576 1.936.865 3.09.865 1.627 0 3.194-.45 4.704-1.349l-2.212-6.23c-1.204.779-2.324 1.17-3.357 1.17-1.001 0-1.849-.276-2.543-.828-.696-.549-1.243-1.546-1.64-2.986-.399-1.443-.598-4.46-.598-9.054z" transform="translate(557.8579 312.3789)"/><path d="m0 0h-7.146v13.783c0 2.915-.152 4.802-.457 5.658-.305.857-.801 1.522-1.489 1.997-.685.473-1.512.711-2.478.711-1.24 0-2.35-.339-3.332-1.017-.984-.678-1.657-1.577-2.021-2.695-.366-1.12-.548-3.189-.548-6.207v-12.23h-7.146v27.008h6.638v-3.968c2.356 3.052 5.323 4.578 8.901 4.578 1.577 0 3.017-.285 4.323-.852 1.305-.571 2.293-1.294 2.963-2.175.669-.881 1.135-1.882 1.397-3.001.263-1.119.395-2.721.395-4.806z" transform="translate(595.8501 312.3789)"/><path d="m0 0c-.915-.306-2.364-.672-4.348-1.095-1.983-.423-3.281-.838-3.891-1.245-.932-.661-1.399-1.502-1.399-2.518 0-.999.373-1.865 1.119-2.595.746-.728 1.696-1.092 2.849-1.092 1.288 0 2.517.423 3.687 1.272.864.642 1.432 1.431 1.705 2.364.184.61.278 1.771.278 3.484zm-9.562 5.798-6.484 1.17c.729 2.61 1.983 4.543 3.764 5.799 1.78 1.253 4.425 1.881 7.934 1.881 3.187 0 5.561-.378 7.121-1.133 1.559-.755 2.658-1.711 3.292-2.872.637-1.163.955-3.294.955-6.397l-.076-8.342c0-2.372.114-4.124.342-5.251.23-1.127.656-2.336 1.285-3.623h-7.069c-.188.474-.417 1.178-.689 2.11-.117.424-.203.704-.253.839-1.221-1.185-2.527-2.077-3.916-2.67-1.39-.592-2.873-.89-4.451-.89-2.78 0-4.971.755-6.573 2.263-1.602 1.509-2.404 3.418-2.404 5.723 0 1.526.366 2.887 1.095 4.081.727 1.197 1.749 2.112 3.063 2.746 1.314.635 3.208 1.191 5.685 1.666 3.338.627 5.653 1.211 6.941 1.754v.712c0 1.374-.34 2.353-1.017 2.939-.677.584-1.958.877-3.839.877-1.272 0-2.264-.251-2.977-.751-.712-.501-1.287-1.377-1.729-2.631" transform="translate(617.9995 325.3486)"/><path d="m0 0v-5.697h-4.883v-10.884c0-2.206.047-3.489.141-3.854.092-.364.305-.666.635-.903.332-.236.732-.356 1.209-.356.661 0 1.617.23 2.872.687l.61-5.544c-1.662-.712-3.544-1.068-5.646-1.068-1.288 0-2.449.216-3.483.649-1.035.432-1.792.991-2.276 1.679-.483.686-.818 1.613-1.005 2.783-.153.832-.228 2.511-.228 5.035v11.776h-3.282v5.697h3.282v5.364l7.171 4.171v-9.535z" transform="translate(644.4478 339.3867)"/><path d="m649.406 339.387h7.147v-27.008h-7.147zm0 10.271h7.147v-6.611h-7.147z"/><path d="m0 0c0-2.678.635-4.73 1.906-6.155 1.272-1.424 2.841-2.136 4.706-2.136s3.429.712 4.692 2.136c1.263 1.425 1.894 3.494 1.894 6.206 0 2.644-.631 4.678-1.894 6.103-1.263 1.424-2.827 2.136-4.692 2.136s-3.434-.712-4.706-2.136c-1.271-1.425-1.906-3.475-1.906-6.154m-7.324.382c0 2.372.584 4.669 1.754 6.89 1.17 2.222 2.828 3.917 4.972 5.087 2.145 1.17 4.539 1.756 7.184 1.756 4.085 0 7.435-1.329 10.047-3.981 2.609-2.654 3.914-6.006 3.914-10.057 0-4.088-1.318-7.473-3.953-10.16-2.637-2.688-5.955-4.031-9.957-4.031-2.476 0-4.836.559-7.082 1.678-2.246 1.12-3.955 2.759-5.125 4.922-1.17 2.16-1.754 4.793-1.754 7.896" transform="translate(669.5474 325.8818)"/><path d="m0 0h-7.146v13.783c0 2.915-.152 4.802-.457 5.658-.305.857-.801 1.522-1.489 1.997-.685.473-1.512.711-2.478.711-1.24 0-2.35-.339-3.332-1.017-.983-.678-1.657-1.577-2.021-2.695-.366-1.12-.547-3.189-.547-6.207v-12.23h-7.147v27.008h6.638v-3.968c2.356 3.052 5.323 4.578 8.901 4.578 1.577 0 3.017-.285 4.323-.852 1.305-.571 2.293-1.294 2.963-2.175.669-.881 1.135-1.882 1.397-3.001.263-1.119.395-2.721.395-4.806z" transform="translate(720.2554 312.3789)"/><path d="m0 0c-.915-.306-2.364-.672-4.348-1.095-1.983-.423-3.281-.838-3.891-1.245-.932-.661-1.398-1.502-1.398-2.518 0-.999.372-1.865 1.118-2.595.746-.728 1.696-1.092 2.849-1.092 1.288 0 2.517.423 3.687 1.272.864.642 1.432 1.431 1.705 2.364.184.61.278 1.771.278 3.484zm-9.562 5.798-6.484 1.17c.729 2.61 1.983 4.543 3.764 5.799 1.78 1.253 4.425 1.881 7.934 1.881 3.187 0 5.561-.378 7.121-1.133 1.559-.755 2.658-1.711 3.292-2.872.637-1.163.955-3.294.955-6.397l-.076-8.342c0-2.372.114-4.124.342-5.251.23-1.127.657-2.336 1.285-3.623h-7.069c-.188.474-.417 1.178-.688 2.11-.118.424-.204.704-.254.839-1.221-1.185-2.527-2.077-3.916-2.67-1.39-.592-2.873-.89-4.45-.89-2.781 0-4.972.755-6.574 2.263-1.602 1.509-2.404 3.418-2.404 5.723 0 1.526.366 2.887 1.095 4.081.728 1.197 1.749 2.112 3.063 2.746 1.314.635 3.209 1.191 5.685 1.666 3.338.627 5.654 1.211 6.941 1.754v.712c0 1.374-.34 2.353-1.017 2.939-.677.584-1.958.877-3.839.877-1.272 0-2.264-.251-2.976-.751-.713-.501-1.288-1.377-1.73-2.631" transform="translate(742.4048 325.3486)"/><path d="m756.467 349.658h7.147v-37.279h-7.147z"/></g><path d="m0 0c-25.218 0-40.991-25.332-46.789-36.719v36.198h-62.239v-141.667h62.239v72.596c1.773 3.218 3.708 8.525 9.244 8.525 7.942 0 9.766-8.899 9.766-8.899v-72.222h57.551v113.196s-5.337 28.992-29.772 28.992" fill="#ed1c24" transform="translate(750.5249 523.5898)"/><path d="m0 0c-11.805 16.316-4.485 37.776 1.751 43.54l10.175-28.436 9.697-27.098.073-.203c-6.654.661-15.333 3.4-21.696 12.197m61.458 64.929h-55.209s-52.777-43.75-52.777-107.637c0 0 1.736-32.64 41.32-32.64h36.805v35.484l13.195-36.874h67.361z" fill="#ed1c24" transform="translate(102.9565 458.1401)"/><path d="m0 0c-21.18 5.554-38.542 17.708-38.542 44.096 0 26.387 21.181 24.303 21.181 24.303-13.889-42.012 17.013-47.22 17.013-47.22h30.905v59.375h-57.641s-63.541-6.598-63.541-65.279c0-58.679 63.541-76.388 63.541-76.388h57.641v61.113z" fill="#ed1c24" transform="translate(290.1089 442.5151)"/><path d="m0 0c0-36.806 27.776-40.279 34.375-40.279 7.637 0 17.533 5.383 17.533 14.41s-5.902 15.798-13.887 15.798c-7.986 0-14.238-5.729-14.238-5.729v49.654s-23.783-13.369-23.783-33.854m114.408-24.479c0-39.889-34.9-72.223-77.95-72.223-43.054 0-77.952 32.334-77.952 72.223 0 39.886 34.898 72.22 77.952 72.22 43.05 0 77.95-32.334 77.95-72.22" fill="#ed1c24" transform="translate(517.7134 478.7983)"/><path d="m0 0v59.723h-109.375s-29.859-2.778-29.859-32.292c0 0-4.862-21.875 22.221-35.416 0 0 56.944-22.57 56.944-40.625 0-18.057-15.972-22.223-32.639-22.223 0 0 12.847 7.985 12.847 27.431s-29.166 22.917-33.333 22.917h-23.958v-58.333h104.861s35.764.345 35.764 34.72-55.209 47.225-55.209 47.225-22.569 6.596-22.569 27.429 23.264 21.179 30.555 21.179c0 0-8.333-9.025-8.333-29.512 0-20.488 22.917-22.223 52.083-22.223" fill="#ed1c24" transform="translate(469.6216 462.3047)"/><path d="m0 0c-5.312 0-9.635-4.323-9.635-9.635s4.323-9.636 9.635-9.636c5.313 0 9.636 4.324 9.636 9.636s-4.323 9.635-9.636 9.635m0-22.396c-7.035 0-12.76 5.726-12.76 12.761s5.725 12.76 12.76 12.76c7.036 0 12.761-5.725 12.761-12.76s-5.725-12.761-12.761-12.761" fill="#ed1c24" transform="translate(803.4741 404.0586)"/><path d="m0 0h3.182c1.296 0 1.998.553 1.998 1.886 0 1.277-.702 1.831-1.998 1.831h-3.182zm-2.905 5.975h7.125c2.367 0 3.865-1.646 3.865-3.646 0-1.553-.629-2.718-2.09-3.31v-.039c1.425-.368 1.831-1.755 1.923-3.088.057-.832.039-2.386.556-3.127h-2.906c-.35.832-.313 2.11-.462 3.164-.203 1.387-.74 1.998-2.201 1.998h-2.905v-5.162h-2.905z" fill="#ed1c24" transform="translate(801.4058 395.3984)"/></g></g></svg>