<svg height="30" viewBox="0 0 119 30" width="119" xmlns="http://www.w3.org/2000/svg" xmlns:xlink="http://www.w3.org/1999/xlink"><linearGradient id="a"><stop offset="0" stop-color="#792a85"/><stop offset="1" stop-color="#f41538"/></linearGradient><linearGradient id="b" x1=".000748%" x2="99.999694%" xlink:href="#a" y1="49.999601%" y2="49.999601%"/><linearGradient id="c" x1="-.000473%" x2="99.999872%" xlink:href="#a" y1="49.999068%" y2="49.999068%"/><linearGradient id="d" x1="-.001085%" x2="100.001267%" xlink:href="#a" y1="50.000583%" y2="50.000583%"/><mask id="e" fill="#fff"><path d="m12.593914.24886c-.0309785.00046-.0624194.00138-.0938602.00276-1.3866344.0552-2.187914.91954-2.78621509 2.04102-.44155914.828-.84474194 1.67716-1.29832258 2.49872-1.7052043 3.08476-3.44554839 6.15066-5.12855914 9.24692-.96449462 1.77422-1.87535484 3.5788-2.74598925 5.39948-.27603226.57776-.43786021 1.24614-.48548387 1.88554-.06704301.90804.66349463 1.57688 1.57204301 1.44026.69724731-.10534 1.44304301-.27186 2.03487097-.62928 2.51573118-1.51892 4.98984946-3.1073 7.46443015-4.69338 1.9752258-1.265 3.9569247-2.52402 5.8863763-3.85572 2.2369247-1.5433 4.3947849-3.18872 7.1370753-3.81248 1.2474623-.28382 2.494-.1311 3.4326021.51842 1.8619463 1.28984 3.5412581 2.84004 5.2913118 4.28858.3939355.32614.390699.7107.2607742 1.2006-.168301.63066-.2616989 1.3087-.2196236 1.95592.0180322.27186.4646774.5152.7166667.77142.230258-.24978.4808602-.48392.679215-.75624.0735161-.09982.0254301-.28842.0300538-.43654.0309785-1.00464.3976344-1.56354 1.3778494-1.72454.8951398-.1472 1.8217205-.10442 2.7348925-.14536.0013871.03082.0027742.0621.0046237.09292.817-.0575 1.6330752-.12144 2.451-.17112.7952688-.04784 1.3121935-.55614 1.7851935-1.09664.3296667-.37766.2242473-1.28616-.1382473-1.47844-.577957-.30682-.9164086-.05198-1.2872258.44988-.2381183.322-.7578172.58926-1.1656237.61088-1.6598924.09062-3.3257957.09522-4.9893871.08556-.3181075-.00276-.6995591-.13754-.9413763-.34178-1.2474624-1.05156-2.4477634-2.15694-3.6836667-3.22184-1.1933656-1.0281-2.4620967-1.92096-4.1136666-2.05436-2.0464301-.16606-4.0184194.04186-5.8267312 1.10814-.4734624.27968-.8646237.15548-1.1577635-.27324-.2644731-.38502-.5136881-.78246-.7383978-1.19094-1.0671398-1.94488-2.1134731-3.90126-3.1884731-5.84246-.6089355-1.09894-1.4638495-1.8538-2.7700323-1.87266zm-10.51419357 19.40556c.56362366-1.14586 1.21186022-2.25032 1.81848387-3.37502 2.09266667-3.87642 4.16822581-7.76204 6.2789247-11.62834.4452581-.81512.9848387-1.5847 1.5387527-2.33358.2025161-.27278.5733334-.42228 1.0199785-.73508.4609785.43194.9954731.74934 1.2668817 1.21716 1.298785 2.23698 2.5259033 4.51536 3.7779893 6.77856.0827634.15042.1410215.31924.244129.45356.3708172.48438.2603118.86342-.2279462 1.17714-3.6531506 2.35152-7.3026022 4.70994-10.96268819 7.0518-1.24653764.7981-2.50925807 1.5732-3.79232258 2.31104-.17431183.10074-.40826882.09844-.64222581.09614-.10773118-.00138-.21546237-.00184-.3171828.0069-.00786021-.34362-.13824731-.74658-.00277419-1.02028z" fill="#fff" fill-rule="evenodd"/></mask><g fill="none" fill-rule="evenodd"><path d="m12.593914.24886c-.0309785.00046-.0624194.00138-.0938602.00276-1.3866344.0552-2.187914.91954-2.78621509 2.04102-.44155914.828-.84474194 1.67716-1.29832258 2.49872-1.7052043 3.08476-3.44554839 6.15066-5.12855914 9.24692-.96449462 1.77422-1.87535484 3.5788-2.74598925 5.39948-.27603226.57776-.43786021 1.24614-.48548387 1.88554-.06704301.90804.66349463 1.57688 1.57204301 1.44026.69724731-.10534 1.44304301-.27186 2.03487097-.62928 2.51573118-1.51892 4.98984946-3.1073 7.46443015-4.69338 1.9752258-1.265 3.9569247-2.52402 5.8863763-3.85572 2.2369247-1.5433 4.3947849-3.18872 7.1370753-3.81248 1.2474623-.28382 2.494-.1311 3.4326021.51842 1.8619463 1.28984 3.5412581 2.84004 5.2913118 4.28858.3939355.32614.390699.7107.2607742 1.2006-.168301.63066-.2616989 1.3087-.2196236 1.95592.0180322.27186.4646774.5152.7166667.77142.230258-.24978.4808602-.48392.679215-.75624.0735161-.09982.0254301-.28842.0300538-.43654.0309785-1.00464.3976344-1.56354 1.3778494-1.72454.8951398-.1472 1.8217205-.10442 2.7348925-.14536.0013871.03082.0027742.0621.0046237.09292.817-.0575 1.6330752-.12144 2.451-.17112.7952688-.04784 1.3121935-.55614 1.7851935-1.09664.3296667-.37766.2242473-1.28616-.1382473-1.47844-.577957-.30682-.9164086-.05198-1.2872258.44988-.2381183.322-.7578172.58926-1.1656237.61088-1.6598924.09062-3.3257957.09522-4.9893871.08556-.3181075-.00276-.6995591-.13754-.9413763-.34178-1.2474624-1.05156-2.4477634-2.15694-3.6836667-3.22184-1.1933656-1.0281-2.4620967-1.92096-4.1136666-2.05436-2.0464301-.16606-4.0184194.04186-5.8267312 1.10814-.4734624.27968-.8646237.15548-1.1577635-.27324-.2644731-.38502-.5136881-.78246-.7383978-1.19094-1.0671398-1.94488-2.1134731-3.90126-3.1884731-5.84246-.6089355-1.09894-1.4638495-1.8538-2.7700323-1.87266zm-10.51419357 19.40556c.56362366-1.14586 1.21186022-2.25032 1.81848387-3.37502 2.09266667-3.87642 4.16822581-7.76204 6.2789247-11.62834.4452581-.81512.9848387-1.5847 1.5387527-2.33358.2025161-.27278.5733334-.42228 1.0199785-.73508.4609785.43194.9954731.74934 1.2668817 1.21716 1.298785 2.23698 2.5259033 4.51536 3.7779893 6.77856.0827634.15042.1410215.31924.244129.45356.3708172.48438.2603118.86342-.2279462 1.17714-3.6531506 2.35152-7.3026022 4.70994-10.96268819 7.0518-1.24653764.7981-2.50925807 1.5732-3.79232258 2.31104-.17431183.10074-.40826882.09844-.64222581.09614-.10773118-.00138-.21546237-.00184-.3171828.0069-.00786021-.34362-.13824731-.74658-.00277419-1.02028z" fill="url(#b)" mask="url(#e)" transform="translate(75 0)"/><g transform="translate(71 20)"><path d="m21.3004058.48909091c-1.6445217.23045455-3.3122319.37-4.9210435.74818182-1.4608695.34363636-2.8781449.90227272-4.275942 1.46-1.8615652.74318182-3.73286958 1.48863636-5.51234784 2.39681818-1.82307246.93-3.54550724 2.05136364-5.30086956 3.10636364-.33205797.1990909-.65901449.44454545-.89971015.73818181-.13263768.16227273-.18272463.52363637-.08626087.69681819.1048116.18863636.41878261.35454545.64834783.36363636.27594203.01136359.60336232-.09272727.83246377-.25227273 3.38457971-2.34409091 7.03768116-4.205 10.87628982-5.7 3.2213334-1.25454545 6.5368116-2.18045454 10.0665508-1.965.9474782 0 1.9046956-.08681818 2.8387246.02090909 1.261913.14590909 2.4774493.55090909 3.4963478 1.32363637 1.2772174.96909091 1.1468986 2.22136363-.2634203 2.96818181-1.3773913.73-2.7705507 1.43181819-4.1409855 2.175-.2114782.11454546-.4266666.36136364-.4776811.58272728-.0514783.22363636.0788405.69727272.1651014.70590909.4489276.04363636.9822609.11 1.3537391-.08045455 1.496116-.76409091 2.944-1.61909091 4.4085798-2.44227272 1.2447536-.69954546 1.8411594-2.22181819 1.3041159-3.38181819-.6427826-1.38818181-1.7590725-2.30954545-3.2-2.77636363-1.6213333-.525-3.2774493-.82363637-4.9627826-.82363637-.6455652 0-1.2957681.04363637-1.9492174.13545455"/><path d="m21.3004058.48909091c-1.6445217.23045455-3.3122319.37-4.9210435.74818182-1.4608695.34363636-2.8781449.90227272-4.275942 1.46-1.8615652.74318182-3.73286958 1.48863636-5.51234784 2.39681818-1.82307246.93-3.54550724 2.05136364-5.30086956 3.10636364-.33205797.1990909-.65901449.44454545-.89971015.73818181-.13263768.16227273-.18272463.52363637-.08626087.69681819.1048116.18863636.41878261.35454545.64834783.36363636.27594203.01136359.60336232-.09272727.83246377-.25227273 3.38457971-2.34409091 7.03768116-4.205 10.87628982-5.7 3.2213334-1.25454545 6.5368116-2.18045454 10.0665508-1.965.9474782 0 1.9046956-.08681818 2.8387246.02090909 1.261913.14590909 2.4774493.55090909 3.4963478 1.32363637 1.2772174.96909091 1.1468986 2.22136363-.2634203 2.96818181-1.3773913.73-2.7705507 1.43181819-4.1409855 2.175-.2114782.11454546-.4266666.36136364-.4776811.58272728-.0514783.22363636.0788405.69727272.1651014.70590909.4489276.04363636.9822609.11 1.3537391-.08045455 1.496116-.76409091 2.944-1.61909091 4.4085798-2.44227272 1.2447536-.69954546 1.8411594-2.22181819 1.3041159-3.38181819-.6427826-1.38818181-1.7590725-2.30954545-3.2-2.77636363-1.6213333-.525-3.2774493-.82363637-4.9627826-.82363637-.6455652 0-1.2957681.04363637-1.9492174.13545455" fill="url(#c)"/></g><g transform="translate(104 16)"><path d="m13.475625.72996c-.3801562.5764-.9126562.7942-1.5707813.83116-.2901562.01672-.5812499.01672-.8723437.01628-.2128125 0-.425625-.00044-.6379688.00616-1.1929687.0352-1.8689062.54604-2.3310937 1.5818-.7359375 1.6522-1.51125 3.28988-2.315625 4.91348-.435.87912-1.4475.92092-1.99453125.121-.59484375-.8712-1.23421875-1.72348-1.72875-2.64352-.1753125-.3256-.03046875-.83688.0628125-1.2452.075-.3322.37640625-.62568.42328125-.95524.07453125-.52096-.4696875-.88396-.9309375-.66572-.920625.43648-1.98328125 2.31044-1.11703125 3.50416.9571875 1.31868 1.7746875 2.728 2.626875 4.11224.3121875.50732.6965625.64108 1.2525.39556.20390625-.0902.42-.15752.62109375-.25256 1.0771875-.50952 2.11125-.98076 2.5546875-2.22464.5240625-1.47092 1.29421875-2.86308 1.93875-4.2966.22828125-.5082.6140625-.72072 1.1798437-.70356.25125.00748.5029688.00132.7551563.00132.0103125.04224.0215625.08492.0323437.1276.7448438-.18656 1.5145313-.31416 2.229375-.57464.8437501-.30712 1.3401563-1.02828 1.21125-1.69444-.0478125-.2508-.3028125-.60544-.5245312-.65076-.0375-.00748-.07875-.01144-.1223437-.01144-.2662501 0-.6271876.13376-.7420313.30756"/><path d="m13.475625.72996c-.3801562.5764-.9126562.7942-1.5707813.83116-.2901562.01672-.5812499.01672-.8723437.01628-.2128125 0-.425625-.00044-.6379688.00616-1.1929687.0352-1.8689062.54604-2.3310937 1.5818-.7359375 1.6522-1.51125 3.28988-2.315625 4.91348-.435.87912-1.4475.92092-1.99453125.121-.59484375-.8712-1.23421875-1.72348-1.72875-2.64352-.1753125-.3256-.03046875-.83688.0628125-1.2452.075-.3322.37640625-.62568.42328125-.95524.07453125-.52096-.4696875-.88396-.9309375-.66572-.920625.43648-1.98328125 2.31044-1.11703125 3.50416.9571875 1.31868 1.7746875 2.728 2.626875 4.11224.3121875.50732.6965625.64108 1.2525.39556.20390625-.0902.42-.15752.62109375-.25256 1.0771875-.50952 2.11125-.98076 2.5546875-2.22464.5240625-1.47092 1.29421875-2.86308 1.93875-4.2966.22828125-.5082.6140625-.72072 1.1798437-.70356.25125.00748.5029688.00132.7551563.00132.0103125.04224.0215625.08492.0323437.1276.7448438-.18656 1.5145313-.31416 2.229375-.57464.8437501-.30712 1.3401563-1.02828 1.21125-1.69444-.0478125-.2508-.3028125-.60544-.5245312-.65076-.0375-.00748-.07875-.01144-.1223437-.01144-.2662501 0-.6271876.13376-.7420313.30756" fill="url(#d)"/></g><g transform="translate(0 0)"><path d="m64.8090605 11.6271818c1.1581744 0 2.3158876-.0018182 3.474062.0004546.7841085.0013636.9372403.1504545.9524612.9122727.023062 1.2486364-.1010116 1.3777273-1.3588139 1.3659091-1.7365698-.0159091-3.4731396-.0413637-5.2097093-.0563637-1.1913838-.010909-1.6996706.3618182-1.7951473 1.265-.0631899.5963637.1512868.9136364.7942558.9118182 1.6207984-.0045454 3.2420581.0045455 4.8628566.0081818.3708372.0009091.7416744 0 1.1120504.0063637.3879031.0068182.606531.1845454.5963837.5890909-.0059961.2281818.0009225.4563636-.0036899.6845454-.0124535.5895455-.3076473.8595455-.9169458.8545455-1.6909069-.0154545-3.3822752-.0109091-5.0727209-.0081818-1.0852984.0013636-1.3523566.1640909-1.3878721.8209091-.047969.8818182.4658527 1.4618182 1.4363023 1.4759091 1.8518799.0259091 3.704221-.0086364 5.556562-.0159091.2550659-.0009091.5465698-.0681818.7545892.0313636.2444574.1177273.500907.3504546.5959225.5931818.1005504.2572728.0392054.5863637.0106085.88-.0442791.445-.2942713.7181818-.7684264.7181818-1.737031.0004546-3.4731395-.0004545-5.2101705-.0154545-.7375233-.0068182-1.4842713.0159091-2.2098023-.0895455-1.2642597-.1836363-1.9118411-.8518181-1.9362868-2.1045454-.0452016-2.3009091-.0221396-4.6040909.0244457-6.9054546.0193721-.9777272 1.0198023-1.8840909 2.0170039-1.9022727 1.2268992-.0227273 2.4547209-.0054545 3.6820814-.0054545z" fill="#7a2b86"/><g transform="translate(0 11.363636)"><path d="m0 .25354461h11.4041176v11.05978599h-11.4041176z"/><path d="m11.4029213 6.83227273c0 1.16454545.0032287 2.32863636-.0009225 3.49318177-.0027674.7518182-.2186279.9809091-.9086434.9877273-.74536431.0077273-1.07284493-.285-1.0793023-1.0163636-.01291473-1.57500002 0-3.15045456-.01475969-4.72500002-.00553488-.59272727-.03136434-1.18772727-.09455426-1.77681818-.09824419-.92181818-.5664031-1.35045455-1.50318217-1.36136364-1.34313179-.015-2.68718605-.01590909-4.02985659.015-1.19184496.02818182-1.58851163.37-1.6397093 1.56318182-.07103101 1.66363637-.04381783 3.33136364-.05765504 4.99727273-.00322869.41090909.0092248.82227273-.00322869 1.23272729-.02536821.84-.22277907 1.0640909-.91463953 1.0686363-.87312791.0059091-1.13649612-.2263636-1.14064729-1.0745454-.01199225-2.28272728-.0262907-4.56636365-.0046124-6.84863637.01522093-1.60409091 1.4898062-3.07454546 3.11291085-3.10590909 1.69044574-.03227273 3.3822752-.03818182 5.07272093-.00863637 1.82374418.03181819 3.20469768 1.46818182 3.20562018 3.27272728.0004612 1.09545454 0 2.19136363.0004612 3.28681818" fill="#f51638"/></g><path d="m30.6452674 16.1007273c-.0701085 1.4327272-.0959379 2.8695454-.2260077 4.2977272-.0922481 1.015-.8283876 1.6068182-1.7361085 1.9372728-.5138217.1872727-1.086221.3131818-1.6309458.3068182-1.7762364-.0213637-3.5580077-.0481819-5.3250194-.2059091-1.330217-.1181819-2.1807441-.9772728-2.2702248-2.2759091-.1226899-1.795-.1010116-3.5995455-.1323759-5.4-.0119923-.7072728-.0184496-1.4154546.0041511-2.1218182.0253683-.7809091.2642907-1.0081818.9898217-1.0131818.7988683-.0054546 1.0428644.2 1.0516279 1.0090909.0216783 2.1218182.013376 4.2440909.0221396 6.3659091.0046124 1.09.3874418 1.5059091 1.4801201 1.5277272 1.3426706.0268182 2.6862636.0272728 4.0289341.0027273 1.1106667-.02 1.5991202-.4377273 1.6291008-1.5218182.0599613-2.1204545.0488915-4.2427272.0535039-6.3645454.0013837-.6172727.1987946-1.0054546.9035698-1.0222727.7799573-.0181819 1.0511666.175909 1.0737674.9840909.0336705 1.1627272.0087636 2.3272727.0087636 3.4909091.0253682.000909.0498139.0018181.0751821.0031818" fill="#f51638"/><path d="m51.6893566 11.621c1.1355736 0 2.272531.0281818 3.4067209-.01.6729496-.0227273.9358566.2545455.8961899.8836364-.0032286.045.0027675.0909091.0041512.1368181.0359767 1.1331819-.0581163 1.2554546-1.2282829 1.2672728-1.8758644.0186363-3.75219-.0309091-5.6271318.0090909-.9487713.0204545-1.237969.3218182-1.2697946 1.2618182-.0442791 1.2995454-.0318256 2.6022727-.001845 3.9036363.0230621 1.0145455.4312597 1.3740909 1.4782752 1.3759091 1.8311241.0031818 3.6617869-.0186363 5.4929109.0059091.3639186.0045455 1.009655.1168182 1.0382519.2695455.1065465.5618181.0313644 1.1631818-.0368992 1.7422727-.0106085.0895454-.3440853.2009091-.5290426.2018182-2.2480853.0104545-4.4970931.0322727-6.7442558-.0104546-1.658159-.0313636-2.5054574-.8418182-2.550659-2.455-.0548876-1.9627272-.0355155-3.9281818-.0202945-5.8922727.0036899-.4286364.0848682-.8681818.2052519-1.2818182.226469-.7759091.9589186-1.3445454 1.8020659-1.3677273 1.2273605-.0336363 2.4561046-.0090909 3.6843876-.0090909z" fill="#7a2b86"/><path d="m38.1147775 17.9393636v.0045455c.2536822 0 .5073644.005.7601241-.0013636.8007131-.0204546.9935116-.205.7661201-.9477273-.2375388-.7754546-.5682481-1.5286364-.9151008-2.2654546-.3486976-.74-.5553333-.7518181-.9603023-.01-.4432519.8122728-.8168566 1.6645455-1.1692442 2.5204546-.1549767.3763636.0152209.6781818.4815349.6968182.3450078.0136363.690938.0027272 1.0368682.0027272zm.1425233 2.0263637c-.6259031 0-1.2518062.0209091-1.8763256-.0054546-.760124-.0313636-1.2259768.2990909-1.4496783 1.0072728-.082562.26-.2006395.51-.3150271.7590909-.3565388.7754545-.8556008 1.0581818-1.6982869.9272727-.462624-.0722727-.7149224-.2881818-.4727713-.8081818.7785737-1.6681818 1.5502287-3.3395455 2.3015892-5.0195455.6235969-1.3940909 1.2273604-2.7963636 1.8145194-4.205.3597674-.8654545.5382674-1.0072727 1.4934961-.985.0927093.0022727.1877248.0177273.2776666.0031818.6821745-.1109091 1.1078993.1331819 1.3897171.7854546.6950891 1.6068182 1.452907 3.1877273 2.1779767 4.7822727.6134497 1.3490909 1.216752 2.7027273 1.825128 4.0545455.0189108.0409091.0544263.0759091.0701085.1172727.1545155.4163636.4796899.8586364-.0110698 1.2395454-.3510039.2727273-1.474124.0077273-1.6978256-.3877272-.3256356-.5759091-.5650194-1.2036364-.9298604-1.7518182-.157283-.2368182-.5253527-.4381818-.8168566-.4663636-.6881706-.0677273-1.3878721-.0218182-2.0825-.0218182z" fill="#7a2b86"/><path d="m16.3567345 17.1940455c0 1.4618181.0069186 2.9240909-.0027674 4.3854545-.0050737.7872727-.3256357 1.0977273-1.0848373 1.0968182-.7278372-.0018182-1.0995969-.3472727-1.1028255-1.1072727-.0119923-2.9463637-.0138372-5.8931819-.0004613-8.8395455.0036899-.8072727.3256357-1.1013636 1.084376-1.1027273.8602132-.0022727 1.0968294.2154546 1.1069767 1.1131818.0161434 1.4845455.0046124 2.969091.0046124 4.454091z" fill="#f51638"/><path d="m38.1147775 17.9393636c-.3459302 0-.6918604.0109091-1.0368682-.0027272-.466314-.0186364-.6365116-.3204546-.4815349-.6968182.3523876-.8559091.7259923-1.7081818 1.1692442-2.5204546.404969-.7418181.6116047-.73.9603023.01.3468527.7368182.677562 1.49.9151008 2.2654546.2273915.7427273.034593.9272727-.7661201.9477273-.2527597.0063636-.5064419.0013636-.7601241.0013636z" fill="#fff"/><path d="m28.4580198 25.4353636h-2.4293527v1.4113637h2.1710581v.4068182h-2.1710581v1.7218181h-.4524768v-3.9518181h2.8818295z" fill="#666"/><path d="m32.5744973 26.3670909c-.0784109-.1995454-.1881861-.3727273-.3297868-.5195454-.1411396-.1468182-.3081086-.2636364-.500907-.35-.1932597-.0868182-.4045078-.13-.633283-.13-.2292364 0-.4404845.0427272-.6332829.1272727-.1927985.0845454-.3574612.2-.4953721.3472727-.1374496.1468182-.2449186.3186364-.3233295.5163636-.0784108.1977273-.1176162.4095455-.1176162.6354546 0 .2254545.0392054.4381818.1176162.6377273.0784109.1995454.1877249.3727272.3293256.5195454.1406783.1468182.3085698.2636364.5013682.35.1923373.0868182.4035853.1295455.633283.1295455.2287752 0 .439562-.0418182.6328217-.1268182.1927984-.0845455.3579225-.2004546.4953721-.3468182.1374496-.1472727.2453798-.3195454.3237907-.5168182.0784108-.1977272.117155-.4095454.117155-.6354545s-.0387442-.4386364-.117155-.6377273m.4381783 1.4086364c-.0996279.2468182-.2389225.4636363-.418345.6518182-.1794225.1881818-.3952829.3377272-.6471201.4490909-.2518372.1109091-.5313489.1668181-.83669.1668181-.305341 0-.5834689-.0545454-.833-.1640909-.2504534-.1090909-.4653914-.2568181-.6452752-.4431818-.1794224-.1859091-.3177945-.4027273-.4151162-.6490909-.0973217-.2468182-.1462132-.5072727-.1462132-.7822727 0-.2745455.0498139-.535.1489806-.7818182.0991667-.2463636.2384613-.4640909.418345-.6522727.1794225-.1881818.3948217-.3377273.6471201-.4486364.2522985-.1109091.5308876-.1663636.8371512-.1663636.3053411 0 .5825465.0545454.833.1636363s.4649302.2563637.6448139.4427273c.1794225.1868182.3177946.4031818.4151163.6495455.097783.2463636.1462132.5072727.1462132.7822727 0 .2745454-.049814.5354545-.1489806.7818182" fill="#666"/><path d="m36.569807 25.6422273c-.180345-.1381818-.4326434-.2068182-.7587403-.2068182h-1.2402752v1.6090909h1.2352015c.1489806 0 .2868915-.0190909.4132713-.0568182.1263799-.0377273.2352326-.0913636.3270194-.1613636s.1642016-.1554546.2158605-.2577273.0774884-.2168182.0774884-.3459091c0-.2490909-.0899419-.4427273-.2698256-.5804545zm.3099535 3.3331818-1.1632481-1.5359091h-1.1457209v1.5359091h-.4524768v-3.9518182h1.7245775c.2213954 0 .4206512.0277273.59869.0845455.1771162.0563636.3293256.1363636.4552442.24.1259186.1036363.2232403.2277272.2919651.3727272.069186.145.1033178.3063637.1033178.4827273 0 .1659091-.0267519.3140909-.0797946.4436364-.0539651.13-.1291473.2427272-.2269302.3390909-.0973217.0959091-.213093.1759091-.3463915.24-.1337597.0640909-.2790504.1095454-.4354108.1354545l1.2319728 1.6136364z" fill="#666"/><path d="m42.4947616 28.393c.1752713-.1245455.262907-.3004545.262907-.5272727 0-.2190909-.0899419-.3881818-.2689031-.5068182-.1785-.1195455-.4437132-.1790909-.7937946-.1790909h-1.2633372v1.4004545h1.3426706c.305341 0 .5447248-.0627272.7204573-.1872727m-.2181666-1.79c.1715814-.1204545.2578333-.2981818.2578333-.5322727 0-.2009091-.0765659-.3590909-.2287752-.4763637-.1522093-.1172727-.3712984-.1759091-.6568062-.1759091h-1.2172132v1.3663637h1.1830814c.2702868 0 .4907597-.0604546.6618799-.1818182m-.0562714-1.5090909c.1600504.0472727.2975.1127273.4118876.1977273.1143876.0840909.2020233.1881818.262907.31.0608837.1227272.0913256.2590909.0913256.4095454 0 .1318182-.0179884.2468182-.0539651.3445455-.0359768.0977272-.084407.1845454-.145752.2595454-.0608837.0754546-.128686.1386364-.2029457.1890909-.0742597.0509091-.1512868.0931819-.2315426.1272728.1180775.0336363.2296976.0781818.3343992.1327272.105624.0545455.1955659.1195455.2721318.1945455.0761046.0754545.1369884.1659091.1826511.2713636.0461241.105.0687248.2259091.0687248.3609091 0 .1695455-.0341317.3218182-.1028565.4572727-.0682636.1354546-.1665078.2495455-.2947326.3418182-.1277636.0922728-.2808953.1631818-.4603178.2118182-.1789613.0490909-.3772946.0731818-.5945388.0731818h-1.7790039v-3.9518182h1.704283c.1983333 0 .3777558.0236364.5373449.0704546" fill="#666"/><path d="m47.3927186 27.2872727c0 .29-.0405891.5436364-.120845.7622728-.0802558.2181818-.1937209.400909-.3403953.5477272-.1471357.1468182-.3228682.2568182-.5271977.33-.2043294.0736364-.4326434.1104546-.6844806.1104546-.2486085 0-.4746163-.0368182-.679407-.1104546-.2043294-.0731818-.380062-.1822727-.5267364-.3272727-.1471357-.145-.2606008-.3245455-.3403954-.5395455-.0802558-.2145454-.1208449-.460909-.1208449-.7395454v-2.2972727h.4524767v2.2695454c0 .4286364.1079303.7581818.3237907.9881818.2153992.2290909.5165892.3436364.9021861.3436364.3708372 0 .6646473-.1086364.8828139-.3268182.2172442-.2186363.3265582-.5445454.3265582-.9772727v-2.2972727h.4524767z" fill="#666"/><path d="m0 30h118.886996v-29.75409091h-118.886996z"/><g fill="#666"><path d="m48.5035698 28.9754545h.452938v-3.9518181h-.452938z"/><path d="m50.1304566 25.0234091h.452938v3.5395454h2.2573101v.4122728h-2.7102481z"/><path d="m56.6134659 26.3897273c-.0784109-.1922728-.1891085-.3586364-.3325543-.5-.1429845-.1409091-.3177945-.2518182-.5235077-.3331818-.2066357-.0809091-.4363334-.1213637-.6881706-.1213637h-.9395465v3.1277273h.9395465c.2518372 0 .4815349-.0395455.6881706-.1181818.2057132-.0790909.3805232-.1895455.5235077-.3304546.1434458-.1413636.2541434-.3059091.3325543-.4940909.0779496-.1881818.1176163-.3931818.1176163-.615 0-.2186363-.0396667-.4236363-.1176163-.6154545m.4321822 1.3859091c-.1028566.2427272-.2490698.4527272-.4381783.6295454-.1891086.1768182-.4141938.3163637-.6761783.4181818-.2615233.1013637-.548876.1518182-.8620582.1518182h-1.3920232v-3.9518182h1.3920232c.3131822 0 .6005349.05.8620582.1495455.2619845.0995454.4870697.2381818.6761783.4145454.1891085.1772728.3353217.3863637.4381783.6268182.1033178.2413637.1545155.5009091.1545155.7795455 0 .2781818-.0511977.5390909-.1545155.7818182"/><path d="m61.0560864 25.4295909h-2.4464186v1.3495455h2.1885853v.4063636h-2.1885853v1.3831818h2.4750155v.4068182h-2.9274922v-3.9522727h2.8988953z"/><path d="m64.4468946 25.6422273c-.1798837-.1381818-.4321822-.2068182-.7578179-.2068182h-1.2407364v1.6090909h1.2347403c.1494419 0 .2873527-.0190909.4132713-.0568182.1268411-.0377273.2361551-.0913636.3279419-.1613636s.1637403-.1554546.2153992-.2577273c.0511977-.1022727.0774884-.2168182.0774884-.3459091 0-.2490909-.0899419-.4427273-.2702868-.5804545zm.3104147 3.3331818-1.1632481-1.5359091h-1.1457209v1.5359091h-.4524767v-3.9518182h1.7241162c.2213954 0 .4215737.0277273.5991512.0845455.1771163.0563636.3293256.1363636.4552442.24.1259186.1036363.2232403.2277272.2924264.3727272.0682635.145.1023953.3063637.1023953.4827273 0 .1659091-.0258295.3140909-.0797946.4436364-.0535039.13-.1291473.2427272-.226469.3390909-.0973217.0959091-.2126317.1759091-.3468527.24-.1332984.0640909-.2781279.1095454-.4349496.1354545l1.2315116 1.6136364z"/><path d="m66.5333151 26.261c.0304419.0754545.0857907.1440909.1655853.2063636.080717.0622728.1909535.1190909.3325543.1695455.1416007.0509091.3228682.0990909.5442635.1445454.4469419.0977273.7762675.2336364.988438.4068182.2121705.1736364.3177946.4127273.3177946.7181818 0 .1695455-.0336706.3245455-.1019341.464091-.0673411.1390909-.1614341.2581818-.2799729.355909-.1199225.0981819-.2633682.1736364-.4317209.2263637-.1674303.0527273-.3514651.0790909-.5493372.0790909-.3210233 0-.6143721-.0513636-.8800466-.1531818-.2652131-.1018182-.5184341-.26-.7587403-.4736364l.2804341-.3272727c.2103256.1881818.4220349.3286363.6360504.4204545.2140155.0922728.4598566.1386364.7393683.1386364.2712093 0 .487531-.0622727.6503488-.1868182.1623566-.1245454.2430736-.2881818.2430736-.4922727 0-.0940909-.0152209-.1777273-.0456628-.2513637-.0309031-.0731818-.0844069-.1404545-.1609728-.200909-.0770272-.0604546-.1826512-.115-.3182558-.1636364-.1360659-.0490909-.3094923-.0963636-.5198179-.1418182-.2296976-.0486364-.4298759-.1054545-.6005349-.1695454-.1706589-.0636364-.3113372-.1409091-.4220348-.2313637-.1106977-.0909091-.193721-.1963636-.2467636-.3172727-.0539651-.12-.0802558-.2636364-.0802558-.4295455 0-.1581818.0318256-.3031818.0973217-.4354545.0645736-.1318182.1563605-.2459091.2748992-.3418182.1176163-.0963636.2573721-.1718182.4178837-.2263636.1600504-.0545455.335783-.0822728.5267365-.0822728.2947325 0 .5516434.04.7711938.12s.4326434.1995455.6388178.36l-.2638295.3445455c-.1872635-.1504545-.3749883-.2595455-.5640969-.3272727-.1891085-.0677273-.3869806-.1018182-.5926938-.1018182-.1300697 0-.247686.0172727-.3528488.0509091-.1047015.0340909-.1951046.0795454-.2693643.1359091-.0742597.0568182-.1319148.1240909-.1715814.2036363-.0405892.0790909-.0604225.1636364-.0604225.2540909 0 .094091.0156822.179091.046124.2545455"/></g></g></g></svg>