<svg height="24" viewBox="0 0 173 24" width="173" xmlns="http://www.w3.org/2000/svg"><path d="m67.240234 20.823529h11.150391v3.176471h-14.529297v-2.823529-21.176471h3.378906zm58.792969-20.78692v-.036609h-3.378906v24h3.378906v-18.840305l5.885438 18.535138h2.958327l6.023423-18.941013v19.24618h3.378906v-24h-3.378906v.081655h-1.175139l-6.377328 19.370038-5.99626-19.415084zm-115.558594 3.139862h7.433594v-3.176471h-17.908203v3.176471h7.095703v20.823529h3.378906zm21.28711-3.176471h16.55664v3.176471h-16.55664zm0 9.882353h16.55664v3.176471h-16.55664zm0 10.941176h16.55664v3.176471h-16.55664zm62.171875-20.823529h16.55664v3.176471h-16.55664zm0 9.882353h16.55664v3.176471h-16.55664zm0 10.941176h16.55664v3.176471h-16.55664zm62.509765-20.823529h16.556641v3.176471h-16.556641zm0 9.882353h16.556641v3.176471h-16.556641zm0 10.941176h16.556641v3.176471h-16.556641z" fill="#009e8c"/></svg>