<svg height="45" viewBox="0 0 135 45" width="135" xmlns="http://www.w3.org/2000/svg"><g fill="none" fill-rule="evenodd"><path d="m0 0h45v45h-45z" fill="#284c75"/><path d="m35.624925 41.249925v-29.999925h3.750075v29.999925zm0-37.49985h3.750075v3.74985h-3.750075zm-6.874875 0h3.74985v37.49985h-3.74985zm-6.8751 0h3.750075v22.5h-3.750075zm-6.874875 0h3.74985v37.49985h-3.74985zm-6.8751 3.74985h-3.750075v-3.74985h7.50015v37.49985h-3.750075z" fill="#fff"/><g fill="#284c75" fill-rule="nonzero" transform="translate(49)"><path d="m8.60384737.051075h-8.4624v2.1771h2.89503158v10.9962h2.67233684v-10.9962h2.89503158z"/><path d="m9.75443684.051075v13.1733h2.67233686v-5.84865h3.1177263v5.84865h2.6723368v-13.1733h-2.6723368v5.03685h-3.1177263v-5.03685z"/><path d="m27.4772263.051075h-7.4046v13.1733h7.590179v-2.1771h-4.9178421v-3.5424h4.4538947v-2.1771h-4.4538947v-3.0996h4.7322631z"/><path d="m.90232105 15.801075v13.1733h2.44964211v-10.5165h.03711579l2.35685263 10.5165h2.07848421l2.35685261-10.5165h.0371158v10.5165h2.4496421v-13.1733h-3.95283156l-1.91146316 9.2988h-.03711579l-1.89290526-9.2988z"/><path d="m20.1097421 24.011325-1.2804947-5.92245h-.0371158l-1.2804948 5.92245zm.3526-8.21025 3.5074421 13.1733h-2.7836842l-.6124105-2.78595h-3.526l-.6124106 2.78595h-2.7836842l3.5074421-13.1733z"/><path d="m24.8976789 28.974375h7.4046v-2.1771h-4.7322631v-10.9962h-2.6723369z"/><path d="m39.0202368 24.011325-1.2804947-5.92245h-.0371158l-1.2804947 5.92245zm.3526-8.21025 3.5074421 13.1733h-2.7836842l-.6124105-2.78595h-3.526l-.6124105 2.78595h-2.7836842l3.5074421-13.1733z"/><path d="m44.9216474 15.801075h-3.006379l3.4332105 7.98885v5.18445h2.6723369v-5.18445l3.4332105-7.98885h-2.8950316l-1.8557894 5.0922h-.0371158z"/><path d="m54.5903105 24.860025h-2.6723368v.53505c0 1.2177.3247631 2.152575.9742895 2.8044.6495263.65205 1.7290526.97785 3.2383526.97785 1.4475158 0 2.5766053-.316575 3.3868158-.950175.8104368-.633375 1.2155421-1.644975 1.2155421-3.035025 0-.4059-.0371158-.7749-.1113474-1.107s-.2070789-.636525-.3989947-.913275c-.1916895-.27675-.4483316-.53505-.7701527-.7749-.3215947-.23985-.7359789-.470475-1.2433789-.691875l-2.0599263-.8856c-.5689579-.23355-.9401158-.488925-1.1134737-.765675-.1731316-.27675-.2598105-.618075-.2598105-1.023975 0-.19665.0217263-.38745.0649526-.57195.0434526-.1845.1237947-.3474.2412526-.488925.1176842-.1413.2754264-.25515.4732264-.341325.1980263-.08595.4453894-.12915.7423157-.12915.5196211 0 .890779.1692 1.1134737.507375.2226948.3384.3340421.821025.3340421 1.448325h2.5609895v-.369c0-.6273-.1020684-1.165275-.3062053-1.614375-.2041368-.448875-.4886157-.817875-.8536631-1.107-.3648211-.2889-.7979895-.49815-1.2990526-.6273-.5010632-.12915-1.0485211-.193725-1.6423737-.193725-1.2741579 0-2.2762842.31995-3.006379.9594-.7298684.639675-1.0949158 1.61145-1.0949158 2.9151 0 .54135.0681211 1.0179.2041369 1.429875.1362421.4122.3496579.7749.6402473 1.08855.2908158.31365.6526948.587475 1.0856369.821025.4331684.233775.9464526.4491 1.5403052.64575.4453895.1476.8197158.292275 1.1227527.433575.3032631.141525.5474579.29835.7330368.470475.185579.17235.3186527.366075.3989948.581175.0805684.215325.1206263.470475.1206263.765675 0 .5535-.1638527.96255-.4917842 1.226925-.3277053.2646-.6959211.396675-1.1041948.396675-.3462631 0-.6339105-.04905-.8629421-.1476-.2288052-.098325-.4112158-.23355-.5474579-.4059-.1360158-.172125-.2288052-.3843-.2783684-.636525-.0493368-.252-.0742316-.5319-.0742316-.839475z"/><path d="m62.199047 15.801075h2.672337v13.1733h-2.672337z"/><path d="m72.3873316 24.011325-1.2804948-5.92245h-.0371157l-1.2804948 5.92245zm.3526-8.21025 3.5074421 13.1733h-2.7836842l-.6124106-2.78595h-3.526l-.6124105 2.78595h-2.7836842l3.5074421-13.1733z"/><path d="m80.2558789 15.801075h-3.0806105v13.1733h2.4496421v-9.225h.0371158l3.2661895 9.225h3.0434947v-13.1733h-2.4496421v9.02205h-.0371158z"/><path d="m.976553 31.551075h2.672337v13.1733h-2.672337z"/><path d="m8.71519474 31.551075h-3.08061053v13.1733h2.44964211v-9.225h.03711579l3.26618949 9.225h3.0434947v-13.1733h-2.4496421v9.02205h-.0371158z"/><path d="m18.4395316 40.610025h-2.6723369v.53505c0 1.2177.3247632 2.152575.9742895 2.8044.6495263.65205 1.7290526.97785 3.2383526.97785 1.4475158 0 2.5766053-.316575 3.3868158-.950175.8104369-.633375 1.2155421-1.644975 1.2155421-3.035025 0-.4059-.0371158-.7749-.1113473-1.107-.0742316-.3321-.207079-.636525-.3989948-.913275-.1916894-.27675-.4483315-.53505-.7701526-.7749-.3215947-.23985-.7359789-.470475-1.2433789-.691875l-2.0599264-.8856c-.5689579-.23355-.9401158-.488925-1.1134736-.765675-.1731316-.27675-.2598106-.618075-.2598106-1.023975 0-.19665.0217263-.38745.0649527-.57195.0434526-.1845.1237947-.3474.2412526-.488925.1176842-.1413.2754263-.25515.4732263-.341325.1980263-.08595.4453895-.12915.7423158-.12915.519621 0 .8907789.1692 1.1134737.507375.2226947.3384.3340421.821025.3340421 1.448325h2.5609895v-.369c0-.6273-.1020685-1.165275-.3062053-1.614375-.2041368-.448875-.4886158-.817875-.8536632-1.107-.364821-.2889-.7979894-.49815-1.2990526-.6273s-1.048521-.193725-1.6423737-.193725c-1.2741579 0-2.2762842.31995-3.0063789.9594-.7298684.639675-1.0949158 1.61145-1.0949158 2.9151 0 .54135.068121 1.0179.2041368 1.429875.1362421.4122.3496579.7749.6402474 1.08855.2908158.31365.6526947.587475 1.0856368.821025.4331685.233775.9464527.4491 1.5403053.64575.4453895.1476.8197158.292275 1.1227526.433575.3032632.141525.5474579.29835.7330369.470475.1855789.17235.3186526.366075.3989947.581175.0805684.215325.1206263.470475.1206263.765675 0 .5535-.1638526.96255-.4917842 1.226925-.3277052.2646-.695921.396675-1.1041947.396675-.3462632 0-.6339105-.04905-.8629421-.1476-.2288053-.098325-.4112158-.23355-.5474579-.4059-.1360158-.172125-.2288053-.3843-.2783684-.636525-.0493369-.252-.0742316-.5319-.0742316-.839475z"/><path d="m26.048268 31.551075h2.672337v13.1733h-2.672337z"/><path d="m36.5891526 35.462475h2.5609895c0-1.34055-.3215947-2.370825-.9650105-3.090375-.6431895-.71955-1.694879-1.079325-3.1548421-1.079325-.8536632 0-1.5649737.141525-2.1341579.42435-.5689579.28305-1.0267948.70425-1.3732842 1.263825-.3462632.5598-.5906842 1.25775-.7330369 2.094075-.1421263.83655-.2134158 1.8081-.2134158 2.9151 0 1.1439.0495632 2.149425.1484632 3.016575.0991263.86715.2939842 1.595925.5845737 2.186325.2908158.5904.6929789 1.027125 1.2062631 1.30995.5135106.28305 1.1784264.42435 1.9949737.42435.6309684 0 1.1723158-.10755 1.6238158-.322875.4517263-.2151.8382737-.581175 1.1598684-1.097775h.0371158v1.2177h1.9671369v-7.10325h-4.3239895v1.9557h1.763v1.34685c0 .35685-.0556737.66735-.1670211.931725-.1113473.2646-.2505315.48285-.4175526.654975-.167021.17235-.3462632.3015-.5381789.38745-.1916895.086175-.3679895.12915-.5289.12915-.383379 0-.6959211-.119925-.9371737-.359775-.2412527-.23985-.4268316-.5841-.5567369-1.0332-.1299052-.448875-.2195263-.99315-.2690894-1.632825-.0493369-.63945-.0742316-1.352925-.0742316-2.1402 0-1.648125.1423526-2.828925.4268316-3.5424.2847052-.71325.7486526-1.0701 1.3918421-1.0701.2722579 0 .5042315.070875.695921.212175.1919158.141525.3496579.31995.4732263.53505.1237948.215325.2134158.452025.2690895.710325s.0835105.510525.0835105.75645z"/><path d="m41.0244895 31.551075v13.1733h2.6723368v-5.84865h3.1177263v5.84865h2.6723369v-13.1733h-2.6723369v5.03685h-3.1177263v-5.03685z"/><path d="m59.0998789 31.551075h-8.4624v2.1771h2.8950316v10.9962h2.6723369v-10.9962h2.8950315z"/></g></g></svg>