<svg height="38" viewBox="0 0 166 38" width="166" xmlns="http://www.w3.org/2000/svg"><g fill="none"><g transform="translate(0 -1)"><path d="m8.027 23.71-5.357-5.357 17.321-17.321 17.322 17.321-5.357 5.357-11.607-11.607z" fill="#008ed3"/><g fill="#1f366c"><path d="m8.027 36.902-5.357-5.355 17.321-17.322 17.322 17.322-5.357 5.355-11.608-11.605z"/><path d="m.029 38.372v-32.07c0-.348.282-.63.629-.63h10.389l-3.416-3.698.925-.854 4.393 4.755c.169.184.214.45.114.68-.1.229-.327.377-.577.377h-11.197v30.812h37.405v-30.812h-11.427c-.246 0-.47-.143-.572-.366-.103-.224-.066-.486.093-.673l4.188-4.895.957.819-3.298 3.855h10.689c.348 0 .63.282.63.63v32.07c0 .349-.282.631-.63.631h-38.666c-.347 0-.629-.282-.629-.631z"/></g></g><g fill="#1f366c" transform="translate(43 7)"><path d="m27.968.952v.551c-.522 0-.945.093-1.27.28s-.635.535-.93 1.047c-.196.344-.507 1.166-.93 2.464l-5.612 16.131h-.588l-4.548-12.758-4.507 12.758h-.548l-5.927-16.625c-.443-1.238-.724-1.968-.842-2.194-.197-.373-.465-.65-.805-.832-.339-.183-.799-.272-1.38-.272v-.55h7.382v.551h-.354c-.521 0-.92.118-1.196.354-.275.237-.413.522-.413.858 0 .345.216 1.138.649 2.379l3.95 11.239 3.318-9.553-.602-1.69-.473-1.343c-.208-.492-.439-.925-.696-1.299-.128-.187-.286-.344-.473-.472-.247-.178-.493-.305-.739-.384-.188-.059-.482-.088-.887-.088v-.552h7.781v.551h-.532c-.551 0-.955.118-1.21.354-.256.237-.384.558-.384.962 0 .502.221 1.379.665 2.632l3.854 10.882 3.835-11.033c.433-1.221.649-2.069.649-2.542 0-.226-.071-.438-.214-.635s-.322-.334-.539-.414c-.374-.138-.861-.206-1.461-.206v-.551z"/><g transform="translate(29 4)"><path d="m5.071 7.793h7.231v-4.463c0-.794-.05-1.317-.15-1.569-.074-.19-.238-.355-.482-.493-.33-.183-.679-.274-1.048-.274h-.551v-.42h6.667v.42h-.552c-.367 0-.718.087-1.047.263-.245.122-.411.307-.5.555-.089.249-.131.754-.131 1.517v10.066c0 .791.049 1.313.148 1.564.076.193.233.358.472.496.337.185.69.275 1.058.275h.552v.42h-6.667v-.42h.551c.638 0 1.102-.188 1.393-.563.191-.245.287-.836.287-1.772v-4.75h-7.231v4.75c0 .791.05 1.313.148 1.564.077.193.236.358.48.496.328.185.675.275 1.042.275h.56v.42h-6.667v-.42h.552c.644 0 1.112-.188 1.402-.563.184-.245.276-.836.276-1.772v-10.065c0-.794-.05-1.317-.15-1.569-.076-.19-.233-.355-.471-.493-.338-.183-.69-.274-1.058-.274h-.552v-.42h6.667v.42h-.56c-.367 0-.714.087-1.042.263-.236.122-.4.307-.492.555-.092.249-.137.754-.137 1.517v4.464z"/><path d="m24.47 15.732v.42h-6.667v-.42h.553c.643 0 1.112-.188 1.402-.563.185-.245.276-.836.276-1.772v-10.067c0-.79-.05-1.312-.15-1.565-.075-.191-.232-.356-.47-.494-.339-.185-.691-.276-1.059-.276h-.553v-.42h6.667v.42h-.56c-.633 0-1.095.187-1.386.564-.189.245-.285.836-.285 1.771v10.066c0 .791.05 1.313.148 1.564.077.193.236.358.48.496.328.185.676.275 1.042.275h.562z"/><path d="m38.667.574.158 3.646h-.438c-.084-.643-.198-1.102-.343-1.378-.236-.444-.552-.771-.943-.982-.394-.211-.911-.315-1.551-.315h-2.187v11.905c0 .96.104 1.561.311 1.799.291.322.737.483 1.343.483h.539v.42h-6.602v-.42h.552c.658 0 1.125-.199 1.4-.599.167-.246.253-.807.253-1.684v-11.904h-1.87c-.726 0-1.242.054-1.548.16-.398.146-.738.425-1.021.839-.283.413-.451.973-.505 1.676h-.437l.184-3.646z"/><path d="m49.042 16.152-6.01-13.108v10.406c0 .96.103 1.561.31 1.799.283.322.731.483 1.344.483h.551v.42h-5.42v-.42h.552c.658 0 1.126-.199 1.4-.599.169-.246.253-.807.253-1.684v-10.171c0-.692-.075-1.192-.229-1.5-.107-.223-.304-.409-.592-.56-.287-.149-.748-.224-1.384-.224v-.42h4.422l5.629 12.182 5.56-12.182h4.403v.42h-.54c-.667 0-1.137.2-1.412.6-.167.246-.253.808-.253 1.684v10.172c0 .96.107 1.561.322 1.799.283.322.731.483 1.343.483h.54v.42h-6.615v-.42h.552c.666 0 1.134-.199 1.4-.599.169-.246.253-.807.253-1.684v-10.405l-5.998 13.108z"/><path d="m71.119 10.956h-6.062l-1.051 2.44c-.259.607-.389 1.06-.389 1.358 0 .238.112.446.339.626.225.182.714.299 1.463.352v.42h-4.916v-.42c.651-.115 1.071-.265 1.264-.449.39-.369.822-1.117 1.298-2.248l5.496-12.815h.399l5.429 12.959c.436 1.044.832 1.72 1.189 2.03.355.312.851.486 1.486.523v.42h-6.146v-.42c.62-.031 1.041-.134 1.258-.311.218-.176.327-.391.327-.645 0-.337-.153-.87-.459-1.601zm-.355-.853-2.629-6.293-2.709 6.293z"/><path d="m77.007.574h4.203l9.546 11.689v-8.986c0-.962-.106-1.561-.321-1.8-.283-.322-.731-.483-1.345-.483h-.539v-.42h5.421v.42h-.552c-.657 0-1.125.2-1.4.6-.169.246-.252.808-.252 1.684v13.126h-.415l-10.269-12.548v9.594c0 .96.103 1.561.31 1.799.291.322.738.483 1.344.483h.551v.42h-5.419v-.42h.539c.665 0 1.138-.199 1.413-.599.168-.246.252-.807.252-1.684v-10.828c-.451-.531-.795-.881-1.027-1.049-.234-.17-.577-.328-1.028-.474-.221-.069-.56-.104-1.011-.104v-.42z"/></g></g><g fill="#336" transform="translate(48 30)"><path d="m.269 2.713c0-.772.246-1.378.738-1.815s1.126-.656 1.905-.656c.509 0 .969.103 1.377.309.409.205.721.492.936.859s.322.785.322 1.251c0 .473-.113.895-.339 1.268s-.546.656-.959.848c-.415.191-.861.287-1.34.287-.52 0-.984-.105-1.393-.316-.409-.214-.72-.503-.93-.869s-.317-.756-.317-1.166zm.753.011c0 .563.178 1.005.537 1.326.358.323.806.484 1.346.484.55 0 1.002-.163 1.357-.488.355-.327.533-.789.533-1.39 0-.379-.076-.709-.228-.992-.151-.283-.374-.503-.666-.659-.293-.155-.621-.232-.985-.232-.516 0-.961.148-1.334.449-.374.299-.56.8-.56 1.502z"/><path d="m8.544 6.276v-4.668h.617v.438c.146-.172.311-.3.494-.388.183-.085.406-.128.667-.128.341 0 .642.074.903.224.261.147.458.357.591.627s.2.565.2.889c0 .345-.074.656-.221.932-.146.277-.359.489-.639.637s-.575.22-.883.22c-.226 0-.428-.04-.608-.12-.179-.081-.327-.183-.442-.305v1.643h-.679zm.613-2.962c0 .434.104.755.313.964.208.207.46.312.756.312.301 0 .559-.107.774-.323.214-.215.321-.549.321-1 0-.429-.105-.751-.313-.966-.21-.215-.461-.321-.752-.321-.289 0-.543.114-.766.342-.221.227-.333.559-.333.992z"/><path d="m16.453 4.472.098.504c-.19.035-.361.053-.512.053-.246 0-.437-.033-.572-.1-.136-.064-.231-.151-.286-.259-.056-.106-.083-.331-.083-.675v-1.942h-.497v-.444h.497v-.836l.674-.344v1.18h.681v.444h-.681v1.974c0 .164.012.27.036.315s.062.084.116.111c.054.026.131.04.231.04.076 0 .175-.007.298-.021z"/><path d="m19.262.982v-.66h.677v.66zm0 4.002v-3.376h.677v3.376z"/><path d="m23.113 4.984v-3.376h.606v.474c.125-.165.292-.298.5-.399.208-.1.446-.151.712-.151.296 0 .54.053.729.156.189.104.323.248.401.436.315-.395.728-.592 1.234-.592.396 0 .702.094.915.278.213.186.32.472.32.856v2.318h-.674v-2.128c0-.229-.022-.394-.066-.494-.043-.101-.123-.182-.239-.242-.115-.063-.251-.093-.407-.093-.281 0-.514.08-.7.237-.187.157-.279.411-.279.757v1.963h-.678v-2.194c0-.255-.055-.445-.166-.572-.11-.126-.291-.19-.542-.19-.191 0-.367.043-.529.127-.162.085-.279.209-.352.373-.073.163-.109.398-.109.705v1.752h-.676z"/><path d="m31.681.982v-.66h.678v.66zm0 4.002v-3.376h.678v3.376z"/><path d="m35.261 3.977.67-.09c.038.227.144.4.314.521.172.121.412.182.722.182s.542-.055.692-.161.225-.232.225-.376c0-.131-.065-.231-.199-.306-.093-.051-.323-.116-.692-.194-.496-.104-.842-.197-1.033-.275-.192-.075-.338-.184-.437-.321-.1-.136-.149-.287-.149-.452 0-.149.041-.29.122-.418.083-.127.194-.234.333-.319.105-.064.25-.121.431-.167.183-.045.377-.068.587-.068.313 0 .588.038.825.114s.412.18.525.311c.113.13.19.304.233.522l-.663.076c-.029-.173-.117-.309-.262-.405-.145-.099-.348-.147-.611-.147-.312 0-.533.044-.667.131-.133.086-.199.188-.199.305 0 .075.027.141.083.2.056.061.143.112.26.152.068.021.267.069.599.146.479.108.813.196 1.003.266.189.068.339.169.445.3.109.131.163.295.163.49 0 .19-.065.369-.197.538-.133.168-.322.299-.571.392-.248.092-.529.137-.843.137-.519 0-.916-.09-1.188-.272-.271-.185-.445-.456-.521-.812z"/><path d="m44.267 3.896.7.072c-.11.346-.314.615-.613.805-.298.191-.681.285-1.145.285-.585 0-1.049-.15-1.392-.455-.342-.304-.514-.73-.514-1.279 0-.567.174-1.009.52-1.322.347-.313.795-.471 1.349-.471.534 0 .971.154 1.31.462.338.307.509.739.509 1.297 0 .033-.001.085-.005.151h-2.981c.024.372.149.655.373.852s.501.297.836.297c.248 0 .46-.056.636-.165.174-.112.313-.287.417-.529zm-2.225-.924h2.232c-.03-.283-.115-.496-.256-.64-.216-.22-.497-.33-.84-.33-.312 0-.573.088-.784.264-.212.176-.331.412-.352.706z"/><path d="m55.889 4.984v-1.974l-2.128-2.688h.889l1.088 1.406c.202.264.388.525.562.789.166-.244.366-.519.603-.824l1.069-1.371h.85l-2.202 2.688v1.975h-.731z"/><path d="m61.14 3.296c0-.626.205-1.088.618-1.389.344-.251.763-.376 1.257-.376.549 0 .999.152 1.348.457.349.303.523.723.523 1.26 0 .435-.076.776-.231 1.024-.154.249-.379.443-.674.58-.295.138-.617.206-.966.206-.56 0-1.013-.149-1.356-.453-.346-.303-.519-.74-.519-1.309zm.696 0c0 .433.112.756.336.971.223.216.503.323.843.323.337 0 .616-.108.839-.324.225-.217.335-.547.335-.989 0-.418-.11-.733-.336-.948-.225-.215-.504-.323-.838-.323-.34 0-.62.107-.843.321-.224.213-.336.536-.336.969z"/><path d="m70.442 4.984v-.497c-.311.382-.733.571-1.268.571-.236 0-.457-.037-.661-.113-.205-.076-.357-.172-.455-.288-.1-.114-.17-.257-.21-.424-.028-.112-.041-.29-.041-.534v-2.091h.678v1.871c0 .299.014.501.042.604.043.151.133.27.27.355.139.085.309.128.513.128.203 0 .395-.044.572-.132s.303-.207.379-.358c.073-.152.11-.372.11-.659v-1.809h.679v3.376z"/><path d="m74.246 4.984v-3.376h.609v.512c.155-.24.299-.398.431-.475s.276-.114.435-.114c.229 0 .461.063.696.185l-.232.53c-.167-.081-.332-.123-.497-.123-.148 0-.282.037-.4.113-.117.075-.202.179-.251.313-.076.203-.114.426-.114.668v1.768h-.677z"/><path d="m85.452 4.984v-4.662h1.1l1.307 3.301c.12.308.208.537.263.689.063-.17.16-.418.293-.746l1.322-3.244h.982v4.662h-.703v-3.9l-1.604 3.9h-.658l-1.597-3.967v3.967z"/><path d="m93.701 3.296c0-.626.205-1.088.617-1.389.344-.251.763-.376 1.257-.376.55 0 .999.152 1.348.457.35.303.522.723.522 1.26 0 .435-.076.776-.229 1.024-.155.249-.38.443-.675.58-.295.138-.617.206-.966.206-.56 0-1.012-.149-1.357-.453s-.517-.74-.517-1.309zm.695 0c0 .433.112.756.335.971.225.216.505.323.844.323.337 0 .615-.108.84-.324.223-.217.335-.547.335-.989 0-.418-.112-.733-.337-.948-.226-.215-.505-.323-.838-.323-.339 0-.619.107-.844.321-.222.213-.335.536-.335.969z"/><path d="m100.383 4.984v-3.376h.61v.479c.293-.371.718-.557 1.272-.557.24 0 .463.037.664.11.202.073.354.168.454.287s.17.26.21.424c.026.105.039.29.039.556v2.076h-.679v-2.054c0-.234-.026-.408-.079-.523-.053-.116-.146-.208-.281-.277-.134-.067-.29-.103-.472-.103-.288 0-.538.077-.747.231-.21.155-.314.448-.314.882v1.844h-.677z"/><path d="m109.55 3.896.7.072c-.109.346-.314.615-.613.805-.298.191-.681.285-1.145.285-.584 0-1.049-.15-1.392-.455-.342-.304-.514-.73-.514-1.279 0-.567.174-1.009.521-1.322.346-.313.794-.471 1.348-.471.534 0 .971.154 1.31.462.339.307.509.739.509 1.297 0 .033-.001.085-.004.151h-2.982c.025.372.149.655.373.852s.502.297.836.297c.248 0 .46-.056.637-.165.174-.112.313-.287.416-.529zm-2.225-.924h2.232c-.029-.283-.115-.496-.256-.64-.215-.22-.496-.33-.84-.33-.311 0-.573.088-.784.264-.212.176-.329.412-.352.706z"/><path d="m113.215 6.284-.077-.539c.147.035.276.053.388.053.151 0 .272-.022.362-.064.09-.043.164-.102.223-.178.042-.058.11-.198.206-.427.013-.031.033-.078.06-.139l-1.517-3.382h.73l.831 1.954c.109.249.205.509.291.782.078-.263.171-.519.278-.77l.855-1.967h.677l-1.521 3.433c-.163.37-.29.625-.381.766-.12.188-.259.327-.414.415s-.341.131-.558.131c-.129.001-.273-.022-.433-.068z"/></g></g></svg>