<svg width="148" height="47" viewBox="0 0 148 47" fill="none" xmlns="http://www.w3.org/2000/svg">
<path d="M47.679 45.4944C46.7102 45.4944 45.9447 45.1774 45.3825 44.5435L45.8311 43.9693C46.3274 44.5435 46.9524 44.8305 47.7059 44.8305C48.1904 44.8305 48.5462 44.7259 48.7735 44.5166C49.0007 44.3072 49.1143 44.065 49.1143 43.7899C49.1143 43.5507 49.0246 43.3534 48.8452 43.1979C48.6718 43.0364 48.4535 42.9198 48.1904 42.848C47.9332 42.7762 47.6491 42.6955 47.3381 42.6058C47.0331 42.5101 46.7491 42.4114 46.4859 42.3098C46.2288 42.2081 46.0105 42.0436 45.8311 41.8164C45.6576 41.5891 45.5709 41.308 45.5709 40.9731C45.5709 40.4827 45.7653 40.082 46.154 39.771C46.5427 39.4601 47.0361 39.3046 47.6342 39.3046C48.5133 39.3046 49.219 39.5856 49.7513 40.1478L49.3027 40.695C48.8781 40.2166 48.301 39.9774 47.5714 39.9774C47.2126 39.9774 46.9165 40.0671 46.6833 40.2465C46.456 40.4199 46.3424 40.6472 46.3424 40.9283C46.3424 41.1376 46.4291 41.311 46.6025 41.4486C46.782 41.5861 47.0002 41.6878 47.2574 41.7536C47.5205 41.8194 47.8046 41.9031 48.1096 42.0048C48.4206 42.1004 48.7047 42.2051 48.9618 42.3187C49.225 42.4264 49.4433 42.6028 49.6167 42.848C49.7961 43.0932 49.8858 43.3892 49.8858 43.7361C49.8858 44.2205 49.7034 44.6362 49.3386 44.983C48.9798 45.3239 48.4266 45.4944 47.679 45.4944ZM58.2684 45.3867H57.5238V40.0671H55.631V39.4032H60.1702V40.0671H58.2684V45.3867ZM68.6459 45.4944C67.8565 45.4944 67.2524 45.2791 66.8338 44.8485C66.4152 44.4119 66.2058 43.8168 66.2058 43.0633V39.4032H66.9594V43.0454C66.9594 43.6015 67.1029 44.0381 67.39 44.3551C67.683 44.6721 68.1017 44.8305 68.6459 44.8305C69.1901 44.8305 69.6087 44.6721 69.9018 44.3551C70.1948 44.0381 70.3414 43.6015 70.3414 43.0454V39.4032H71.0949V43.0543C71.0949 43.8138 70.8856 44.4119 70.4669 44.8485C70.0483 45.2791 69.4413 45.4944 68.6459 45.4944ZM79.5872 45.3867H77.5419V39.4032H79.5872C80.5023 39.4032 81.2408 39.6873 81.803 40.2555C82.3712 40.8236 82.6552 41.5383 82.6552 42.3995C82.6552 43.2666 82.3741 43.9813 81.812 44.5435C81.2498 45.1056 80.5082 45.3867 79.5872 45.3867ZM79.5872 44.7229C80.2929 44.7229 80.8521 44.5016 81.2648 44.059C81.6774 43.6165 81.8837 43.0633 81.8837 42.3995C81.8837 41.7296 81.6804 41.1735 81.2737 40.7309C80.8671 40.2883 80.3049 40.0671 79.5872 40.0671H78.2865V44.7229H79.5872ZM89.6138 45.3867H88.8692V39.4032H89.6138V45.3867ZM100.933 44.6152C100.376 45.2013 99.6618 45.4944 98.7887 45.4944C97.9155 45.4944 97.2009 45.2013 96.6447 44.6152C96.0945 44.0291 95.8194 43.2906 95.8194 42.3995C95.8194 41.5084 96.0945 40.7698 96.6447 40.1837C97.2009 39.5976 97.9155 39.3046 98.7887 39.3046C99.6618 39.3046 100.376 39.5976 100.933 40.1837C101.489 40.7698 101.767 41.5084 101.767 42.3995C101.767 43.2906 101.489 44.0291 100.933 44.6152ZM98.7887 44.8305C99.4465 44.8305 99.9788 44.6033 100.385 44.1488C100.792 43.6883 100.995 43.1052 100.995 42.3995C100.995 41.6938 100.792 41.1137 100.385 40.6591C99.9788 40.1986 99.4465 39.9684 98.7887 39.9684C98.1248 39.9684 97.5926 40.1957 97.1919 40.6502C96.7912 41.1047 96.5908 41.6878 96.5908 42.3995C96.5908 43.1052 96.7912 43.6883 97.1919 44.1488C97.5926 44.6033 98.1248 44.8305 98.7887 44.8305Z" fill="#000000"/>
<path d="M15.1255 16.6576C15.1255 18.6835 14.7904 20.1242 14.1203 20.9796C13.1151 22.2852 11.727 22.8704 9.90815 22.8704C8.08926 22.8704 6.70116 22.2401 5.74386 20.9796C5.07374 20.0792 4.73868 18.6385 4.73868 16.6576V1.71094H0V17.6481C0 20.3043 0.909444 22.5103 2.6326 24.221C4.59508 26.1119 7.03622 27.1023 9.90815 27.1023C12.7801 27.1023 15.2212 26.1569 17.1837 24.221C18.9547 22.5103 19.8163 20.3043 19.8163 17.6481V1.71094H15.0776V16.6576H15.1255Z" fill="#000000"/>
<path fill-rule="evenodd" clip-rule="evenodd" d="M29.9633 1.66797C32.1173 1.66797 33.7926 1.84805 34.9413 2.11817C36.138 2.43331 37.191 3.01857 38.0047 3.82894C39.5843 5.22456 40.3501 7.07039 40.3501 9.23136C40.3501 11.5724 39.5364 13.4633 37.8611 14.8139C36.2337 16.1645 33.984 16.8398 31.2078 16.8398H29.8676V26.6092H25.1289V1.66797H29.9633ZM30.9202 12.6537C34.1751 12.6537 35.8025 11.5282 35.8025 9.18716C35.8025 6.98117 34.1272 5.90069 30.7766 5.85567H29.915V12.6537H30.9202Z" fill="#000000"/>
<path d="M53.2747 11.5245L50.7378 10.534C49.0625 9.85872 48.2009 9.04836 48.2009 8.05791C48.2009 7.33759 48.4881 6.70731 49.1104 6.2571C49.7326 5.76188 50.5463 5.49176 51.5037 5.49176C52.2695 5.49176 52.9396 5.62682 53.4183 5.94196C53.8969 6.21208 54.3756 6.79735 54.95 7.65273L55.1893 8.01289L59.0664 5.85192L58.8749 5.49176C57.1518 2.65549 54.6628 1.21484 51.5515 1.21484C49.254 1.21484 47.2915 1.89015 45.7598 3.15071C44.1802 4.4563 43.4144 6.07702 43.4144 8.01289C43.4144 10.8492 45.2811 13.0552 48.9668 14.5408L51.4558 15.4862C52.078 15.7564 52.6046 15.9815 53.0354 16.2516C53.4661 16.5217 53.8012 16.7918 54.0884 17.107C54.3277 17.3771 54.5192 17.6922 54.6628 18.0524C54.8064 18.4126 54.8542 18.7727 54.8542 19.2229C54.8542 20.3034 54.5192 21.1588 53.8012 21.8341C53.0832 22.5094 52.2216 22.8696 51.1207 22.8696C49.7326 22.8696 48.6796 22.4194 47.9616 21.4739C47.5787 20.9787 47.2915 20.0783 47.1 18.7277L47.0522 18.2775L42.2656 19.2679L42.3135 19.6281C42.6964 21.9691 43.6059 23.815 45.1376 25.1206C46.6692 26.4261 48.6317 27.1014 50.9293 27.1014C53.3704 27.1014 55.4765 26.3361 57.1518 24.8054C58.8271 23.2747 59.6408 21.3389 59.6408 18.9978C59.6408 17.242 59.1143 15.7564 58.1091 14.5408C57.0082 13.3703 55.4286 12.3348 53.2747 11.5245Z" fill="#000000"/>
<path d="M77.6855 1.71094H61.1719V5.94284H67.0593V26.6521H71.798V5.94284H77.6855V1.71094Z" fill="#000000"/>
<path d="M115.642 1.21484C111.286 1.21484 107.744 2.74553 104.968 5.8069C102.766 8.28301 101.617 11.1193 101.617 14.3157C101.617 17.8273 102.957 20.8887 105.638 23.4098C108.318 25.8859 111.573 27.1465 115.355 27.1465C117.844 27.1465 120.285 26.5162 122.534 25.3457L122.774 25.2106V19.7181L122.056 20.3034C121.433 20.7986 120.859 21.2038 120.285 21.564C119.758 21.9241 119.184 22.1943 118.705 22.3743C117.796 22.7795 116.695 22.9596 115.402 22.9596C112.913 22.9596 110.759 22.1042 109.036 20.4835C107.313 18.8177 106.452 16.7918 106.452 14.3607C106.452 11.9296 107.313 9.8137 109.036 8.14795C110.759 6.43719 112.866 5.5818 115.402 5.5818C117.7 5.5818 119.902 6.43719 122.056 8.14795L122.774 8.6882V3.28577L122.534 3.15071C120.333 1.84513 117.987 1.21484 115.642 1.21484Z" fill="#000000"/>
<path d="M147.999 1.71094H141.585L132.204 10.715V1.71094H127.465V26.6521H132.204V16.4325L132.539 16.1174L141.633 26.6521H147.951L135.937 13.056L147.999 1.71094Z" fill="#000000"/>
<path d="M91.5203 5.08984L89.0312 10.1771L90.4193 13.1935L91.1852 14.8592L92.1425 16.9302L94.105 21.2071L96.7855 27.0597H102.003L91.5203 5.08984Z" fill="url(#paint0_linear_5412_12)"/>
<path d="M89.0781 0L75.6758 27.0571H80.8453L82.712 23.1404L85.7275 16.9276H85.6797L87.6421 12.9208L87.3071 13.6861L87.6421 12.9208L88.9824 10.1295L89.0302 10.1746L91.5192 5.08728L89.0781 0Z" fill="url(#paint1_linear_5412_12)"/>
<defs>
<linearGradient id="paint0_linear_5412_12" x1="75.6978" y1="38.339" x2="102.002" y2="38.339" gradientUnits="userSpaceOnUse">
<stop stop-color="#00D4FF"/>
<stop offset="1" stop-color="#0A4DFF"/>
</linearGradient>
<linearGradient id="paint1_linear_5412_12" x1="81.2036" y1="45.4438" x2="106.752" y2="33.3205" gradientUnits="userSpaceOnUse">
<stop stop-color="#00D4FF"/>
<stop offset="1" stop-color="#0A4DFF"/>
</linearGradient>
</defs>
</svg>
